<svg version="1.1" id="Layer_1" xmlns="http://www.w3.org/2000/svg" 
     xmlns:xlink="http://www.w3.org/1999/xlink" x="0px" y="0px"
     width="100%" viewBox="0 0 1080 1080" enable-background="new 0 0 1080 1080" xml:space="preserve">
  <defs>
    <!-- Adjust rx/ry to set how rounded the corners should be -->
    <clipPath id="roundedCorners">
      <rect x="1" y="1" width="1080" height="1080" rx="200" ry="200" />
    </clipPath>
  </defs>
  <g clip-path="url(#roundedCorners)">
    <path fill="#3F51B5" opacity="1.000000" stroke="none" 
      d="
    M0.999988,1006.000000 
    	C1.000000,695.970642 1.000000,385.941284 1.399615,75.590080 
    	C2.533398,72.504227 3.317324,69.752296 3.993382,66.974129 
    	C7.486471,52.619709 13.092013,39.316795 23.231712,28.274929 
    	C36.693684,13.615190 53.760487,6.054669 73.097450,2.909352 
    	C73.816139,2.792450 74.369560,1.659472 75.000000,1.000000 
    	C385.362701,1.000000 695.725403,1.000000 1006.409912,1.399602 
    	C1009.495789,2.533375 1012.247681,3.317347 1015.025879,3.993396 
    	C1029.380371,7.486454 1042.683228,13.092100 1053.725098,23.231842 
    	C1068.384888,36.693787 1075.945190,53.760609 1079.090698,73.097412 
    	C1079.207520,73.816124 1080.340576,74.369553 1081.000000,75.000000 
    	C1081.000000,385.029388 1081.000000,695.058777 1080.600342,1005.409912 
    	C1079.801392,1006.734436 1079.208496,1007.704285 1079.031616,1008.744812 
    	C1076.374146,1024.392944 1070.735474,1038.869507 1060.391968,1050.954834 
    	C1045.383423,1068.490723 1025.341675,1076.345337 1002.911133,1079.072998 
    	C1001.877930,1079.198608 1000.967590,1080.334595 1000.000000,1081.000000 
    	C694.303955,1081.000000 388.607941,1081.000000 82.584503,1080.591919 
    	C77.217957,1079.124756 72.164154,1078.130493 67.142456,1076.994385 
    	C53.019352,1073.798950 39.982914,1068.207642 29.073967,1058.511597 
    	C13.912237,1045.035889 6.087446,1027.657227 2.909357,1007.907837 
    	C2.793552,1007.188171 1.659491,1006.632263 0.999988,1006.000000 
    M590.227844,508.126556 
    	C578.016357,437.041718 565.808472,365.956268 553.588074,294.872955 
    	C552.352234,287.684479 547.689453,283.759949 540.525696,283.772827 
    	C533.290710,283.785797 528.744568,287.637054 527.491699,294.878906 
    	C513.038025,378.424957 498.565308,461.967682 484.149750,545.520325 
    	C470.357971,625.457458 456.631622,705.405884 442.863770,785.347168 
    	C441.365692,794.045593 446.171204,799.880554 455.377197,799.890747 
    	C512.192261,799.953796 569.007507,799.958984 625.822510,799.882812 
    	C635.192444,799.870239 639.668274,794.003845 638.063049,784.729370 
    	C622.155396,692.816528 606.273560,600.899231 590.227844,508.126556 
    M730.626038,706.317017 
    	C743.121704,628.516846 755.657349,550.723083 768.099854,472.914368 
    	C777.385498,414.846771 786.516235,356.754395 795.799744,298.686462 
    	C797.583313,287.530487 793.351013,282.307281 781.895142,282.303650 
    	C730.242554,282.287201 678.590027,282.292572 626.937439,282.312775 
    	C625.281067,282.313416 623.591431,282.393982 621.974426,282.720428 
    	C615.362366,284.055359 611.738953,289.228577 612.694458,295.908203 
    	C613.048035,298.379852 613.610229,300.820923 614.003357,303.287750 
    	C628.682800,395.415710 643.329590,487.548859 658.033386,579.672974 
    	C669.166443,649.425049 680.357788,719.167786 691.560242,788.908813 
    	C692.933350,797.456360 697.052246,801.169922 704.653625,801.101013 
    	C712.039795,801.034058 716.072327,797.358887 717.402039,789.104980 
    	C721.800354,761.803528 726.117859,734.489075 730.626038,706.317017 
    M347.470367,688.182861 
    	C352.896820,722.068115 358.275421,755.961060 363.780762,789.833496 
    	C365.307617,799.227661 373.805878,803.681335 382.498718,799.921265 
    	C387.640411,797.697266 388.870117,793.137207 389.656799,788.190735 
    	C399.573364,725.837769 409.513672,663.488464 419.479218,601.143311 
    	C435.702789,499.648102 451.946838,398.156158 468.191467,296.664307 
    	C469.456299,288.762085 465.342682,283.255524 457.387756,282.412964 
    	C455.738251,282.238281 454.059784,282.313721 452.394653,282.313568 
    	C402.409180,282.308838 352.423676,282.332184 302.438232,282.293915 
    	C288.282043,282.283081 283.906311,287.205536 285.752106,301.395782 
    	C285.881042,302.386993 286.029846,303.375946 286.187378,304.363068 
    	C306.561462,432.019135 326.937164,559.674927 347.470367,688.182861 
    z"/>
    <path fill="#000000" opacity="1.000000" stroke="none" 
      d="
    M0.999988,1006.468628 
    	C1.659491,1006.632263 2.793552,1007.188171 2.909357,1007.907837 
    	C6.087446,1027.657227 13.912237,1045.035889 29.073967,1058.511597 
    	C39.982914,1068.207642 53.019352,1073.798950 67.142456,1076.994385 
    	C72.164154,1078.130493 77.217957,1079.124756 82.128548,1080.591919 
    	C55.075928,1081.000000 28.151859,1081.000000 1.000000,1081.000000 
    	C1.000000,1056.312866 1.000000,1031.625122 0.999988,1006.468628 
    z"/>
    <path fill="#000000" opacity="1.000000" stroke="none" 
      d="
    M1000.468628,1081.000000 
    	C1000.967590,1080.334595 1001.877930,1079.198608 1002.911133,1079.072998 
    	C1025.341675,1076.345337 1045.383423,1068.490723 1060.391968,1050.954834 
    	C1070.735474,1038.869507 1076.374146,1024.392944 1079.031616,1008.744812 
    	C1079.208496,1007.704285 1079.801392,1006.734436 1080.600342,1005.865845 
    	C1081.000000,1030.929688 1081.000000,1055.859375 1081.000000,1081.000000 
    	C1054.312866,1081.000000 1027.625122,1081.000000 1000.468628,1081.000000 
    z"/>
    <path fill="#000000" opacity="1.000000" stroke="none" 
      d="
    M74.531342,1.000000 
    	C74.369560,1.659472 73.816139,2.792450 73.097450,2.909352 
    	C53.760487,6.054669 36.693684,13.615190 23.231712,28.274929 
    	C13.092013,39.316795 7.486471,52.619709 3.993382,66.974129 
    	C3.317324,69.752296 2.533398,72.504227 1.399615,75.134125 
    	C1.000000,50.406464 1.000000,25.812923 1.000000,1.000000 
    	C25.353788,1.000000 49.708237,1.000000 74.531342,1.000000 
    z"/>
    <path fill="#000000" opacity="1.000000" stroke="none" 
      d="
    M1081.000000,74.531342 
    	C1080.340576,74.369553 1079.207520,73.816124 1079.090698,73.097412 
    	C1075.945190,53.760609 1068.384888,36.693787 1053.725098,23.231842 
    	C1042.683228,13.092100 1029.380371,7.486454 1015.025879,3.993396 
    	C1012.247681,3.317347 1009.495789,2.533375 1006.865845,1.399602 
    	C1031.593506,1.000000 1056.187134,1.000000 1081.000000,1.000000 
    	C1081.000000,25.353788 1081.000000,49.708237 1081.000000,74.531342 
    z"/>
    <path fill="#FEFEFF" opacity="1.000000" stroke="none" 
      d="
    M590.306152,508.554871 
    	C606.273560,600.899231 622.155396,692.816528 638.063049,784.729370 
    	C639.668274,794.003845 635.192444,799.870239 625.822510,799.882812 
    	C569.007507,799.958984 512.192261,799.953796 455.377197,799.890747 
    	C446.171204,799.880554 441.365692,794.045593 442.863770,785.347168 
    	C456.631622,705.405884 470.357971,625.457458 484.149750,545.520325 
    	C498.565308,461.967682 513.038025,378.424957 527.491699,294.878906 
    	C528.744568,287.637054 533.290710,283.785797 540.525696,283.772827 
    	C547.689453,283.759949 552.352234,287.684479 553.588074,294.872955 
    	C565.808472,365.956268 578.016357,437.041718 590.306152,508.554871 
    z"/>
    <path fill="#FEFEFE" opacity="1.000000" stroke="none" 
      d="
    M730.546143,706.748291 
    	C726.117859,734.489075 721.800354,761.803528 717.402039,789.104980 
    	C716.072327,797.358887 712.039795,801.034058 704.653625,801.101013 
    	C697.052246,801.169922 692.933350,797.456360 691.560242,788.908813 
    	C680.357788,719.167786 669.166443,649.425049 658.033386,579.672974 
    	C643.329590,487.548859 628.682800,395.415710 614.003357,303.287750 
    	C613.610229,300.820923 613.048035,298.379852 612.694458,295.908203 
    	C611.738953,289.228577 615.362366,284.055359 621.974426,282.720428 
    	C623.591431,282.393982 625.281067,282.313416 626.937439,282.312775 
    	C678.590027,282.292572 730.242554,282.287201 781.895142,282.303650 
    	C793.351013,282.307281 797.583313,287.530487 795.799744,298.686462 
    	C786.516235,356.754395 777.385498,414.846771 768.099854,472.914368 
    	C755.657349,550.723083 743.121704,628.516846 730.546143,706.748291 
    z"/>
    <path fill="#FEFEFE" opacity="1.000000" stroke="none" 
      d="
    M347.391602,687.756836 
    	C326.937164,559.674927 306.561462,432.019135 286.187378,304.363068 
    	C286.029846,303.375946 285.881042,302.386993 285.752106,301.395782 
    	C283.906311,287.205536 288.282043,282.283081 302.438232,282.293915 
    	C352.423676,282.332184 402.409180,282.308838 452.394653,282.313568 
    	C454.059784,282.313721 455.738251,282.238281 457.387756,282.412964 
    	C465.342682,283.255524 469.456299,288.762085 468.191467,296.664307 
    	C451.946838,398.156158 435.702789,499.648102 419.479218,601.143311 
    	C409.513672,663.488464 399.573364,725.837769 389.656799,788.190735 
    	C388.870117,793.137207 387.640411,797.697266 382.498718,799.921265 
    	C373.805878,803.681335 365.307617,799.227661 363.780762,789.833496 
    	C358.275421,755.961060 352.896820,722.068115 347.391602,687.756836 
    z"/>
  </g>
</svg>
